<?xml version="1.0" standalone="no"?>
<!DOCTYPE svg PUBLIC "-//W3C//DTD SVG 20010904//EN"
 "http://www.w3.org/TR/2001/REC-SVG-20010904/DTD/svg10.dtd">
<svg version="1.0" xmlns="http://www.w3.org/2000/svg"
 width="512.000000pt" height="512.000000pt" viewBox="0 0 512.000000 512.000000"
 preserveAspectRatio="xMidYMid meet">
<metadata>
Created by potrace 1.14, written by Peter Selinger 2001-2017
</metadata>
<g transform="translate(0.000000,512.000000) scale(0.100000,-0.100000)"
fill="#000000" stroke="none">
<path d="M2552 4243 c-8 -13 -13 -13 -32 -3 -16 9 -25 9 -33 1 -6 -6 -19 -11
-28 -11 -10 0 -19 -6 -22 -12 -4 -10 -7 -10 -18 0 -15 14 -49 16 -49 2 0 -13
-72 -48 -86 -43 -7 2 -26 -13 -42 -33 -29 -35 -33 -37 -58 -25 -21 9 -31 9
-48 -3 -15 -9 -27 -11 -39 -4 -13 7 -19 5 -23 -7 -4 -9 -18 -28 -33 -43 -14
-15 -46 -52 -71 -81 -25 -30 -55 -64 -66 -76 -12 -12 -34 -42 -49 -66 -15 -24
-44 -68 -63 -97 -34 -52 -88 -226 -97 -312 -6 -66 -7 -299 0 -309 3 -6 3 -11
-2 -11 -4 0 -15 13 -24 28 -11 19 -31 32 -71 45 -30 9 -58 17 -61 17 -4 0 -25
-16 -46 -35 -36 -33 -40 -34 -55 -19 -9 9 -26 34 -37 55 -22 45 -43 55 -114
60 -46 4 -50 2 -73 -31 -13 -19 -27 -42 -32 -50 -7 -12 -18 -6 -57 32 l-48 47
-70 -14 c-38 -7 -72 -13 -75 -12 -3 0 -11 -18 -19 -39 -8 -21 -15 -40 -16 -42
-1 -1 -26 8 -56 22 l-54 23 -81 -31 -82 -32 19 -26 c23 -31 23 -31 -60 -53
-130 -33 -201 -77 -201 -124 0 -4 26 -4 57 0 32 4 59 6 61 4 2 -1 -21 -14 -50
-28 -79 -37 -91 -48 -83 -80 7 -26 9 -27 54 -21 25 3 48 7 51 9 3 2 30 6 60
10 30 4 58 9 63 12 4 2 7 1 7 -4 -1 -4 -39 -26 -85 -47 -47 -22 -85 -44 -85
-51 0 -6 13 -24 30 -40 27 -26 31 -27 72 -17 24 6 57 14 73 17 17 3 44 8 60
11 70 13 130 22 133 19 2 -1 -19 -14 -45 -28 -130 -69 -153 -83 -153 -89 0
-13 113 -58 131 -53 37 12 289 52 289 46 -1 -3 -41 -35 -91 -70 -67 -47 -87
-66 -79 -76 6 -7 37 -29 69 -49 l60 -36 70 20 c39 11 102 29 141 40 89 25 91
25 55 -6 -94 -81 -124 -113 -112 -121 20 -13 107 -52 114 -52 3 0 9 -3 12 -8
13 -18 75 -42 87 -32 6 5 14 6 17 2 4 -3 7 -1 7 5 0 7 4 12 10 12 5 0 44 16
86 35 42 20 78 34 81 32 2 -2 -26 -31 -62 -65 -36 -33 -65 -64 -65 -69 0 -4
53 -33 116 -63 l116 -56 56 27 c32 15 68 30 81 34 23 7 22 4 -12 -36 -42 -49
-45 -59 -17 -59 35 0 22 -17 -27 -35 -82 -31 -399 -180 -483 -227 -25 -14 -72
-40 -105 -58 -210 -116 -375 -238 -375 -279 0 -5 -10 -20 -23 -33 -13 -13 -29
-36 -35 -51 -12 -27 -11 -28 10 -21 13 3 29 11 36 16 23 19 12 -7 -14 -31 -19
-19 -24 -30 -19 -50 9 -34 13 -37 33 -24 39 27 149 93 154 93 3 0 0 -25 -7
-55 -7 -30 -10 -55 -7 -55 4 0 28 7 53 17 43 15 49 22 80 84 18 38 34 67 36
65 5 -5 14 -48 15 -77 1 -24 4 -26 28 -19 39 11 90 39 90 50 0 5 14 39 31 76
34 73 43 72 55 -3 3 -24 7 -43 8 -43 9 0 111 42 116 47 4 5 19 43 35 86 15 43
29 76 31 74 2 -2 14 -29 27 -59 l22 -55 55 26 c51 24 58 32 90 98 36 74 54 88
65 52 7 -21 -7 -39 -131 -163 -96 -97 -203 -336 -238 -531 -3 -16 -8 -41 -11
-53 -6 -35 -7 -223 0 -252 3 -14 8 -41 11 -60 8 -51 13 -68 47 -142 30 -67 30
-67 83 -79 37 -8 59 -20 69 -36 19 -28 40 -29 82 -3 34 20 52 20 95 -3 42 -22
82 -17 86 11 3 20 8 22 42 17 113 -17 111 -17 104 9 -3 14 -2 31 2 38 5 7 10
22 11 33 2 11 25 63 51 115 26 52 47 96 47 97 0 1 34 -15 76 -35 l76 -37 46
-90 c131 -255 164 -297 243 -311 16 -2 39 -16 51 -29 26 -29 43 -31 86 -8 46
24 53 24 108 -2 58 -26 87 -23 95 12 6 23 10 25 48 18 22 -4 58 -9 78 -11 36
-4 37 -3 28 20 -5 13 -5 27 0 32 5 5 11 20 14 34 3 14 7 36 10 50 11 48 15 75
22 120 6 50 8 53 29 56 23 3 217 64 250 79 17 7 46 18 66 24 20 6 62 27 94 46
32 19 59 35 62 35 2 0 11 6 18 12 8 7 20 18 27 23 8 6 42 32 78 60 40 31 61
42 57 31 -7 -18 33 -139 84 -251 12 -27 23 -52 24 -55 0 -3 9 -20 18 -37 20
-37 63 -63 116 -69 20 -3 52 -7 71 -10 19 -2 67 -7 105 -9 39 -3 84 -6 102 -8
24 -3 32 0 36 13 4 16 15 17 97 13 91 -5 93 -5 87 16 -5 19 -1 21 39 21 24 0
44 4 44 10 0 10 -55 77 -78 95 -10 8 -11 17 -3 37 17 46 29 278 17 335 -3 12
-7 52 -11 89 -3 36 -12 82 -20 100 -8 19 -12 34 -11 34 6 0 -41 146 -70 221
l-27 69 29 22 c43 33 185 178 212 216 30 43 62 118 54 127 -4 4 2 5 14 1 22
-7 24 -4 63 86 35 79 24 148 -36 226 -14 19 -49 89 -78 156 -65 150 -78 180
-85 186 -3 3 -15 25 -28 50 -91 182 -116 214 -199 262 -29 16 -56 35 -60 41
-4 7 -6 46 -5 88 4 103 -1 107 -121 95 -31 -3 -62 -8 -67 -11 -6 -4 -9 3 -7
16 1 16 -5 24 -23 30 -109 33 -156 59 -118 65 7 1 33 5 58 9 24 4 48 9 51 11
4 2 27 6 51 9 52 5 85 12 96 19 18 11 93 149 85 156 -4 5 -21 11 -38 14 -16 2
-41 7 -55 10 -40 9 -94 20 -102 21 -41 2 72 44 236 87 37 10 55 22 79 53 18
22 38 46 45 54 18 19 9 24 -51 27 -74 3 -169 13 -174 18 -7 7 260 79 294 79
14 0 58 96 48 105 -3 4 -53 7 -111 8 -58 1 -107 4 -110 7 -6 5 169 62 224 73
32 6 33 8 30 48 l-3 41 -102 -1 c-57 0 -103 0 -103 2 0 1 17 8 38 15 20 6 61
20 89 31 l53 19 -17 27 c-9 15 -18 29 -20 31 -7 9 -112 -1 -190 -18 l-83 -19
6 27 c4 14 11 34 15 43 16 31 10 44 -18 42 -16 -1 -51 -2 -80 -3 -50 -1 -52
-2 -89 -53 -58 -80 -67 -82 -79 -21 -4 21 -9 41 -11 44 -3 6 -124 -24 -142
-35 -5 -3 -23 -39 -42 -80 -18 -42 -37 -76 -41 -76 -4 0 -19 20 -33 45 -20 33
-31 43 -44 38 -9 -4 -19 -9 -22 -12 -3 -3 -24 -19 -47 -35 -24 -16 -44 -33
-44 -37 -2 -15 -4 -22 -24 -96 l-19 -72 -38 31 c-42 33 -47 32 -96 -21 -12
-13 -24 -22 -25 -20 -54 67 -124 148 -140 163 -12 10 -55 48 -96 85 -123 110
-269 209 -346 235 -55 19 -127 55 -177 90 -33 22 -39 23 -46 9z"/>
</g>
</svg>
